<svg width="560" height="833" viewBox="0 0 560 833" fill="none" xmlns="http://www.w3.org/2000/svg">
<path d="M121.489 69.6631C127.494 68.8498 134.341 69.8507 139.918 74.3672L139.917 74.3682C144.176 77.8176 148.326 84.2626 152.281 91.6543C156.404 99.3586 160.854 109.157 165.47 120.306C174.709 142.623 184.813 170.849 194.503 199.643C211.235 249.362 226.844 301.115 234.789 327.775C235.698 325.635 237.01 323.702 238.663 322.009C242.016 318.574 246.484 316.408 251.092 315.044C260.272 312.326 272.01 312.204 283.386 313.674C294.859 315.156 306.717 318.355 316.325 322.882C321.13 325.146 325.579 327.839 329.164 330.979C332.715 334.09 335.794 337.973 337.143 342.672C337.313 343.265 337.486 343.86 337.658 344.457C337.673 344.399 337.688 344.34 337.703 344.282C337.94 343.401 338.427 341.899 339.544 340.521L339.793 340.222C342.399 337.179 345.935 335.664 349.264 334.944C352.703 334.201 356.484 334.176 360.222 334.521C367.709 335.213 376.334 337.519 384.515 340.389C392.758 343.28 400.904 346.869 407.518 350.339C410.823 352.073 413.824 353.819 416.303 355.477C418.497 356.945 420.703 358.617 422.278 360.395L422.585 360.752C425.709 364.511 428.45 368.233 430.919 371.907L431.075 370.08L432.183 368.522C434.431 365.361 437.76 364.203 440.468 363.881C443.109 363.566 445.848 363.935 448.301 364.495C453.252 365.626 458.902 367.987 464.163 370.558C474.725 375.719 485.451 382.597 489.19 385.477H489.191C495.945 390.675 504.791 397.144 510.914 405.175C566.218 477.705 554.167 573.151 542.125 653.763L542.126 653.764C539.364 672.287 537.062 690.947 531.124 709.533C522.329 737.111 509.088 763.08 491.922 786.404L491.923 786.405C477.669 806.071 468.1 816.753 455.296 821.551C448.954 823.927 442.25 824.708 434.617 824.963C427.123 825.213 417.866 824.959 406.762 824.948H406.761L333.946 824.869L264.124 824.934H264.121C253.453 824.94 239.641 825.996 227.521 824.307L226.353 824.134C216.296 822.567 208.251 817.43 201.361 812.398L201.36 812.397C189.186 803.504 177.415 793.697 165.948 784.536L165.946 784.534C115.924 744.548 68.8221 701.066 35.8545 644.164L35.8535 644.163C29.2872 632.827 22.1395 619.805 17.8379 606.582C15.3502 598.934 14.0241 590.9 12.8975 583.603L12.665 582.036C10.2484 565.103 7.35559 525.131 7.03027 486.401C6.8621 466.379 7.37645 446.467 9.03613 430.081C9.86522 421.896 10.9955 414.433 12.5205 408.204C13.9967 402.174 16.0235 396.507 19.0898 392.557L19.501 392.047C23.5311 387.23 29.2386 385.592 33.707 385.044L34.6133 384.945C43.4489 384.103 53.1791 386.335 61.834 389.75C70.5604 393.193 78.8845 398.11 85.0068 403.354L85.7168 403.975C100.477 417.158 105.814 439.178 107.021 456.064L107.187 458.586C107.956 471.308 107.905 485.726 109.995 500.134C112.175 515.158 116.443 527.609 124.668 535.023L125.062 535.373L125.064 535.375C127.569 537.553 129.175 538.068 130.521 537.934C133.236 537.659 136.522 535.102 139.783 530.786L139.786 530.782C143.744 525.552 146.957 519.107 148.557 512.885L148.726 512.203C150.443 505.035 151.22 494.041 151.212 482.367C151.204 470.446 150.384 458.496 149.2 450.39C146.025 428.647 139.293 407.578 134.135 384.997V384.996L96.4561 223.522V223.521C93.3406 210.386 90.2937 197.234 87.3164 184.066L86.043 178.418C83.253 165.985 79.5624 152.24 79.2617 138.098L79.2402 136.436C79.1616 119.232 83.5568 101.18 94.3828 86.6816L94.959 85.9268C101.032 78.1472 110.647 71.132 121.489 69.6631Z" fill="white" stroke="#10B981" stroke-width="14"/>
</svg>
