<svg width="771" height="681" viewBox="0 0 771 681" fill="none" xmlns="http://www.w3.org/2000/svg">
<path d="M313.912 16.3362L540.571 216.177L559.168 217.575L313.912 0L68.6504 217.575L87.2521 216.177L313.912 16.3362Z" fill="#10B981"/>
<path d="M525.743 296.187L752.402 496.028L771 497.426L525.743 279.851V296.187Z" fill="#10B981"/>
<path d="M271.241 453.5C260.893 453.5 252.501 461.891 252.501 472.24V668.919H375.322V472.24C375.322 461.891 366.931 453.5 356.582 453.5H271.241ZM69.3418 598.165C66.5601 598.853 63.5301 599.369 60.2207 599.674L57.4961 599.925V627.333L63.0537 618.26L72.6211 602.643L76.4424 596.407L69.3418 598.165ZM154.873 544.431H216.578V482.73H154.873V544.431ZM404.969 544.427H435.239V544.431H466.671V482.73H436.404V482.725H404.969V544.427ZM154.877 403.38H200.76V254.559H154.877V403.38ZM210.578 403.38H256.462V254.559H210.578V403.38ZM266.276 403.38H312.159V254.559H266.276V403.38ZM321.978 403.38H367.861V254.559H321.978V403.38ZM377.676 403.38H423.559V254.559H377.676V403.38ZM433.373 403.38H479.256V254.559H433.373V403.38ZM311.948 108.683L260.586 153.166L254.503 158.433H373.325L367.242 153.166L315.876 108.683L313.912 106.982L311.948 108.683ZM47.2803 623.687L46.7764 622.931L28.1123 594.952L27.7334 594.384L27.1465 594.036L26.6973 593.765C17.3187 588.024 11.3927 578.481 7.80273 565.981C4.14551 553.246 3 537.73 3 520.749C3 498.507 8.7456 478.511 17.876 464.169C27.0289 449.793 39.3052 441.456 52.3906 441.456C65.4781 441.456 77.754 449.793 86.9062 464.169C96.036 478.511 101.78 498.507 101.78 520.749C101.78 538.111 101.399 553.829 98.2793 566.682C95.1828 579.438 89.4875 588.974 79.1074 594.501L78.3867 594.885L77.959 595.583L57.9414 628.264L57.5 628.986V668.919H120.531V212.336L313.911 41.104L507.292 212.336V307.327L508.313 308.223L723.811 497.406V668.919H761.241V677.744H28.4521V668.919H47.2803V623.687ZM47.2803 599.899L44.626 599.591C42.1685 599.307 39.8663 598.861 37.6729 598.298L30.083 596.35L34.4307 602.869L41.7852 613.894L47.2803 622.132V599.899ZM687.908 528.852H692.387L686.4 523.597L632.933 476.662L632.535 476.313H632.538L626.553 471.059L544.193 398.753L539.215 394.382V475.917H539.21V641.234H687.908V528.852Z" stroke="#10B981" stroke-width="6"/>
<path d="M366.351 455C371.125 455 375 470.23 375 488.995L377 657C377 675.788 371.13 668 366.351 668H261.649C256.875 668 253 675.765 253 657V488.995C253 470.23 256.875 455 261.649 455H366.351ZM275.696 616.738C272.211 616.738 269.383 619.567 269.383 623.052V649.981C269.383 653.466 272.211 656.295 275.696 656.295H352.126C355.615 656.295 358.439 653.471 358.439 649.981V623.052C358.439 619.567 355.611 616.738 352.126 616.738H275.696ZM356.144 554.463C352.419 554.463 349.396 557.481 349.396 561.21C349.397 564.934 352.415 567.953 356.144 567.953C359.868 567.953 362.891 564.934 362.891 561.21C362.891 557.481 359.872 554.463 356.144 554.463Z" fill="#10B981"/>
<path d="M56 597H49H30L19.5 590L9 570.5L3 538L5.5 494L18.5 463L32.5 447L54 442.5L74.5 449L89 468.5L100 499.5L101.5 534.5L98 566L89 586L74.5 595L56 597Z" fill="#10B981" stroke="#10B981"/>
</svg>
